<?xml version="1.0" encoding="UTF-8" standalone="no"?><!DOCTYPE svg PUBLIC "-//W3C//DTD SVG 1.1//EN" "http://www.w3.org/Graphics/SVG/1.1/DTD/svg11.dtd"><svg width="100%" height="100%" viewBox="0 0 1396 1750" version="1.1" xmlns="http://www.w3.org/2000/svg" xmlns:xlink="http://www.w3.org/1999/xlink" xml:space="preserve" xmlns:serif="http://www.serif.com/" style="fill-rule:evenodd;clip-rule:evenodd;stroke-linecap:square;stroke-miterlimit:1.5;"><g><path d="M823.622,1218.65l0,119.068l-30.205,17.609l-0,-50.01l-9.04,5.27l-0,50.01l-30.206,17.609l-0,-119.068l30.206,-17.609l-0,42.582l9.04,-5.27l-0,-42.582l30.205,-17.609Z" style="fill-rule:nonzero;"/><path d="M860.788,1256.26l-27.193,15.852l0,-6.545c0,-7.551 0.849,-13.868 2.547,-18.952c1.698,-5.084 5.106,-10.686 10.224,-16.808c5.118,-6.121 11.767,-11.566 19.946,-16.334c9.806,-5.716 17.196,-8.247 22.17,-7.592c4.975,0.654 7.964,3.275 8.969,7.862c1.004,4.587 1.506,14.946 1.506,31.077l0,48.98l-28.197,16.438l0,-8.678c-1.769,4.512 -4.053,8.455 -6.851,11.827c-2.799,3.371 -6.135,6.186 -10.009,8.445c-5.07,2.956 -9.722,4.209 -13.955,3.759c-4.233,-0.449 -6.35,-5.602 -6.35,-15.456l0,-8.017c0,-7.305 1.124,-12.937 3.372,-16.895c2.249,-3.958 7.821,-10.296 16.718,-19.012c9.518,-9.373 14.612,-14.917 15.282,-16.631c0.669,-1.714 1.004,-4.606 1.004,-8.676c0,-5.099 -0.37,-8.204 -1.112,-9.317c-0.741,-1.112 -1.973,-1.166 -3.695,-0.162c-1.961,1.143 -3.181,2.504 -3.659,4.082c-0.478,1.578 -0.717,5.088 -0.717,10.531l-0,10.222Zm9.183,8.032c-4.639,6.185 -7.33,10.671 -8.071,13.457c-0.742,2.785 -1.112,6.384 -1.112,10.797c-0,5.05 0.322,8.122 0.968,9.217c0.646,1.094 1.925,1.084 3.839,-0.031c1.817,-1.06 3.001,-2.326 3.551,-3.799c0.55,-1.473 0.825,-4.661 0.825,-9.564l0,-20.077Z" style="fill-rule:nonzero;"/><path d="M971.35,1154l-11.766,45.764l15.282,49.78l-27.91,16.27l-9.04,-37.239l0,42.509l-28.986,16.898l0,-119.069l28.986,-16.897l0,50.01l9.04,-33.805l24.394,-14.221Z" style="fill-rule:nonzero;"/><path d="M1044.75,1145.49l0,23.902c0,8.776 -0.43,15.462 -1.291,20.058c-0.861,4.596 -2.703,9.494 -5.525,14.693c-2.822,5.2 -6.445,9.935 -10.87,14.206c-4.424,4.271 -9.506,8.079 -15.246,11.426c-6.409,3.736 -11.838,6.178 -16.287,7.324c-4.448,1.147 -7.904,0.98 -10.367,-0.501c-2.464,-1.481 -4.221,-3.987 -5.274,-7.516c-1.052,-3.53 -1.578,-9.438 -1.578,-17.724l-0,-25.005c-0,-9.07 0.957,-16.713 2.87,-22.927c1.913,-6.215 5.357,-12.316 10.331,-18.305c4.975,-5.989 11.337,-11.242 19.085,-15.759c6.505,-3.792 12.09,-6.055 16.753,-6.788c4.664,-0.733 8.263,-0.245 10.798,1.464c2.535,1.71 4.269,3.984 5.202,6.823c0.933,2.839 1.399,7.716 1.399,14.629Zm-28.986,9.543c0,-5.001 -0.263,-7.998 -0.789,-8.99c-0.526,-0.993 -1.65,-0.987 -3.372,0.016c-1.722,1.004 -2.87,2.323 -3.444,3.957c-0.574,1.634 -0.861,4.951 -0.861,9.952l-0,44.053c-0,4.609 0.287,7.445 0.861,8.508c0.574,1.062 1.698,1.106 3.372,0.13c1.722,-1.004 2.858,-2.304 3.408,-3.899c0.55,-1.595 0.825,-4.501 0.825,-8.718l0,-45.009Z" style="fill-rule:nonzero;"/><path d="M1083.78,1088.46l-0.503,9.265c2.105,-4.806 4.676,-8.989 7.713,-12.549c3.038,-3.56 6.541,-6.498 10.511,-8.812c4.975,-2.9 9.04,-4.069 12.197,-3.507c3.157,0.562 5.19,2.405 6.099,5.528c0.909,3.123 1.363,8.95 1.363,17.481l0,68.396l-28.986,16.898l0,-67.588c0,-6.717 -0.215,-10.685 -0.646,-11.905c-0.43,-1.22 -1.626,-1.258 -3.587,-0.115c-2.057,1.199 -3.348,2.797 -3.874,4.796c-0.527,1.998 -0.79,6.674 -0.79,14.029l0,65.969l-28.986,16.898l0,-97.594l29.489,-17.19Z" style="fill-rule:nonzero;"/><path d="M1160.98,1021.98l-0,15.518l-29.847,17.4l-0,-15.518l29.847,-17.4Zm-0,21.475l-0,97.594l-29.847,17.399l-0,-97.593l29.847,-17.4Z" style="fill-rule:nonzero;"/><path d="M1265.01,982.809l-11.552,104.327l-31.497,18.362c-1.722,-10.911 -3.707,-25.443 -5.955,-43.597c-0.765,8.977 -1.841,18.234 -3.229,27.77l-3.228,23.063l-31.497,18.361l-12.269,-90.441l24.968,-14.555c0.191,2.438 2.296,19.818 6.314,52.139c0.287,-3.697 2.439,-23.559 6.457,-59.584l24.035,-14.012l5.884,52.39c0.909,-16.807 3.109,-36.696 6.601,-59.668l24.968,-14.555Z" style="fill-rule:nonzero;"/><path d="M1295.65,1002.75l-27.192,15.852l-0,-6.545c-0,-7.551 0.849,-13.868 2.547,-18.952c1.698,-5.084 5.106,-10.686 10.224,-16.808c5.118,-6.121 11.766,-11.566 19.945,-16.334c9.806,-5.716 17.196,-8.247 22.17,-7.592c4.975,0.654 7.964,3.275 8.969,7.862c1.004,4.587 1.506,14.946 1.506,31.077l0,48.98l-28.196,16.438l-0,-8.678c-1.77,4.513 -4.054,8.455 -6.852,11.827c-2.798,3.371 -6.135,6.186 -10.009,8.445c-5.07,2.956 -9.722,4.209 -13.955,3.759c-4.233,-0.449 -6.349,-5.601 -6.349,-15.456l-0,-8.017c-0,-7.305 1.124,-12.937 3.372,-16.895c2.248,-3.958 7.82,-10.296 16.717,-19.012c9.518,-9.373 14.612,-14.917 15.282,-16.631c0.67,-1.714 1.004,-4.606 1.004,-8.676c0,-5.099 -0.37,-8.204 -1.112,-9.316c-0.741,-1.113 -1.973,-1.167 -3.695,-0.163c-1.961,1.143 -3.18,2.504 -3.659,4.082c-0.478,1.578 -0.717,5.088 -0.717,10.531l-0,10.222Zm9.183,8.032c-4.639,6.185 -7.33,10.671 -8.071,13.457c-0.742,2.785 -1.112,6.384 -1.112,10.797c-0,5.05 0.323,8.122 0.968,9.217c0.646,1.094 1.926,1.084 3.839,-0.031c1.817,-1.06 3.001,-2.326 3.551,-3.799c0.55,-1.473 0.825,-4.661 0.825,-9.564l0,-20.077Z" style="fill-rule:nonzero;"/></g><g id="レイヤー1"></g><path d="M202.155,1080.98c0.525,-87.52 68.048,-119.666 151.143,-71.691c83.419,48.162 151.145,158.952 151.145,247.251l0,373.305l-302.291,-174.528l-0,-373.305l0.003,-1.032Z"/><g><path d="M928.995,275l-230.94,-133.333l-692.821,400l0,800l692.821,400l692.82,-400l0,-800l-230.94,-133.334" style="fill:none;stroke:#000;stroke-width:12.5px;"/><path d="M13.568,546.478l684.487,395.189" style="fill:none;stroke:#000;stroke-width:12.5px;"/><path d="M1378.38,548.884l-680.32,392.783" style="fill:none;stroke:#000;stroke-width:12.5px;"/><path d="M698.055,941.667l-0,787.5" style="fill:none;stroke:#000;stroke-width:12.5px;"/></g><g><path d="M236.175,408.333l-0,266.667l230.94,133.333l230.94,-133.333l-0,-266.667l-230.94,-133.333l-230.94,133.333Z" style="fill:none;stroke:#000;stroke-width:12.5px;"/><path d="M240.341,410.739l226.774,130.928" style="fill:none;stroke:#000;stroke-width:12.5px;"/><path d="M467.115,541.667l-0,262.5" style="fill:none;stroke:#000;stroke-width:12.5px;"/><path d="M693.888,410.739l-226.773,130.928" style="fill:none;stroke:#000;stroke-width:12.5px;"/></g><g><path d="M698.055,675l230.94,-133.333l-0,-266.667l-230.94,-133.333l-230.94,133.333" style="fill:none;stroke:#000;stroke-width:12.5px;"/><path d="M471.281,277.406l226.774,130.927" style="fill:none;stroke:#000;stroke-width:12.5px;"/><path d="M924.828,277.406l-226.773,130.927" style="fill:none;stroke:#000;stroke-width:12.5px;"/></g><g><path d="M928.995,541.667l230.94,-133.334l-0,-266.666l-230.94,-133.334l-230.94,133.334" style="fill:none;stroke:#000;stroke-width:12.5px;"/><path d="M702.221,144.072l226.774,130.928" style="fill:none;stroke:#000;stroke-width:12.5px;"/><path d="M1155.77,144.072l-226.773,130.928" style="fill:none;stroke:#000;stroke-width:12.5px;"/></g></svg>