<?xml version="1.0" encoding="UTF-8" standalone="no"?>
<!DOCTYPE svg PUBLIC "-//W3C//DTD SVG 1.1//EN" "http://www.w3.org/Graphics/SVG/1.1/DTD/svg11.dtd">
<svg width="100%" height="100%" viewBox="0 0 198 247" version="1.1" xmlns="http://www.w3.org/2000/svg" xmlns:xlink="http://www.w3.org/1999/xlink" xml:space="preserve" xmlns:serif="http://www.serif.com/" style="fill-rule:evenodd;clip-rule:evenodd;stroke-linecap:square;stroke-miterlimit:1.5;">
    <g transform="matrix(1,0,0,1,-108,-360)">
        <g id="レイヤー1">
        </g>
        <g id="パス結合">
        </g>
        <g id="パス結合（白）" transform="matrix(0.578249,0,0,0.578249,79.3358,287.984)">
            <g transform="matrix(0.734694,-0.428296,0,0.753094,-157.933,345.539)">
                <path d="M556.154,413.141L556.154,451.086L546.286,451.086L546.286,435.149L543.333,435.149L543.333,451.086L533.466,451.086L533.466,413.141L543.333,413.141L543.333,426.711L546.286,426.711L546.286,413.141L556.154,413.141Z" style="fill:white;fill-rule:nonzero;"/>
                <path d="M568.294,432.032L559.411,432.032L559.411,429.946C559.411,427.54 559.689,425.684 560.243,424.379C560.798,423.075 561.911,421.922 563.583,420.922C565.255,419.922 567.427,419.422 570.099,419.422C573.302,419.422 575.716,419.989 577.341,421.122C578.966,422.254 579.943,423.645 580.271,425.293C580.599,426.942 580.763,430.336 580.763,435.477L580.763,451.086L571.552,451.086L571.552,448.321C570.974,449.43 570.228,450.262 569.314,450.817C568.4,451.372 567.31,451.649 566.044,451.649C564.388,451.649 562.868,451.184 561.486,450.254C560.103,449.325 559.411,447.29 559.411,444.149L559.411,441.594C559.411,439.266 559.779,437.68 560.513,436.836C561.247,435.993 563.068,435.008 565.974,433.883C569.083,432.665 570.747,431.844 570.966,431.422C571.185,431 571.294,430.141 571.294,428.844C571.294,427.219 571.173,426.161 570.931,425.668C570.689,425.176 570.286,424.93 569.724,424.93C569.083,424.93 568.685,425.137 568.529,425.551C568.372,425.965 568.294,427.04 568.294,428.774L568.294,432.032ZM571.294,436.297C569.779,437.407 568.9,438.336 568.658,439.086C568.415,439.836 568.294,440.915 568.294,442.321C568.294,443.93 568.4,444.969 568.611,445.438C568.822,445.907 569.24,446.141 569.865,446.141C570.458,446.141 570.845,445.957 571.025,445.59C571.204,445.223 571.294,444.258 571.294,442.696L571.294,436.297Z" style="fill:white;fill-rule:nonzero;"/>
                <path d="M604.411,419.985L600.568,432.383L605.56,451.086L596.443,451.086L593.49,437.54L593.49,451.086L584.021,451.086L584.021,413.141L593.49,413.141L593.49,429.079L596.443,419.985L604.411,419.985Z" style="fill:white;fill-rule:nonzero;"/>
                <path d="M628.388,430.907L628.388,438.524C628.388,441.321 628.247,443.372 627.966,444.676C627.685,445.981 627.083,447.2 626.161,448.332C625.24,449.465 624.056,450.301 622.611,450.84C621.165,451.379 619.505,451.649 617.63,451.649C615.536,451.649 613.763,451.418 612.31,450.957C610.857,450.497 609.728,449.801 608.923,448.872C608.118,447.942 607.544,446.817 607.201,445.497C606.857,444.176 606.685,442.196 606.685,439.555L606.685,431.586C606.685,428.696 606.997,426.438 607.622,424.813C608.247,423.188 609.372,421.883 610.997,420.899C612.622,419.915 614.701,419.422 617.232,419.422C619.357,419.422 621.181,419.739 622.704,420.372C624.228,421.004 625.404,421.829 626.232,422.844C627.06,423.86 627.626,424.907 627.931,425.985C628.236,427.063 628.388,428.704 628.388,430.907ZM618.919,428.563C618.919,426.969 618.833,425.965 618.661,425.551C618.49,425.137 618.122,424.93 617.56,424.93C616.997,424.93 616.622,425.137 616.435,425.551C616.247,425.965 616.154,426.969 616.154,428.563L616.154,442.602C616.154,444.071 616.247,445.028 616.435,445.473C616.622,445.918 616.99,446.141 617.536,446.141C618.099,446.141 618.47,445.938 618.65,445.532C618.829,445.125 618.919,444.25 618.919,442.907L618.919,428.563Z" style="fill:white;fill-rule:nonzero;"/>
                <path d="M641.138,419.985L640.974,422.844C641.661,421.704 642.501,420.848 643.493,420.278C644.486,419.707 645.63,419.422 646.927,419.422C648.552,419.422 649.88,419.805 650.911,420.571C651.943,421.336 652.607,422.301 652.904,423.465C653.201,424.629 653.349,426.571 653.349,429.29L653.349,451.086L643.88,451.086L643.88,429.547C643.88,427.407 643.81,426.102 643.669,425.633C643.529,425.165 643.138,424.93 642.497,424.93C641.826,424.93 641.404,425.2 641.232,425.739C641.06,426.278 640.974,427.719 640.974,430.063L640.974,451.086L631.505,451.086L631.505,419.985L641.138,419.985Z" style="fill:white;fill-rule:nonzero;"/>
                <path d="M666.357,413.141L666.357,418.086L656.607,418.086L656.607,413.141L666.357,413.141ZM666.357,419.985L666.357,451.086L656.607,451.086L656.607,419.985L666.357,419.985Z" style="fill:white;fill-rule:nonzero;"/>
                <path d="M700.341,419.985L696.568,451.086L686.279,451.086C685.716,447.29 685.068,442.29 684.333,436.086C684.083,438.805 683.732,441.555 683.279,444.336L682.224,451.086L671.935,451.086L667.927,419.985L676.083,419.985C676.146,420.797 676.833,426.727 678.146,437.774C678.24,436.649 678.943,430.719 680.255,419.985L688.107,419.985L690.029,437.774C690.326,432.586 691.044,426.657 692.185,419.985L700.341,419.985Z" style="fill:white;fill-rule:nonzero;"/>
                <path d="M710.349,432.032L701.466,432.032L701.466,429.946C701.466,427.54 701.743,425.684 702.298,424.379C702.853,423.075 703.966,421.922 705.638,420.922C707.31,419.922 709.482,419.422 712.154,419.422C715.357,419.422 717.771,419.989 719.396,421.122C721.021,422.254 721.997,423.645 722.326,425.293C722.654,426.942 722.818,430.336 722.818,435.477L722.818,451.086L713.607,451.086L713.607,448.321C713.029,449.43 712.283,450.262 711.368,450.817C710.454,451.372 709.365,451.649 708.099,451.649C706.443,451.649 704.923,451.184 703.54,450.254C702.158,449.325 701.466,447.29 701.466,444.149L701.466,441.594C701.466,439.266 701.833,437.68 702.568,436.836C703.302,435.993 705.122,435.008 708.029,433.883C711.138,432.665 712.802,431.844 713.021,431.422C713.24,431 713.349,430.141 713.349,428.844C713.349,427.219 713.228,426.161 712.986,425.668C712.743,425.176 712.341,424.93 711.779,424.93C711.138,424.93 710.74,425.137 710.583,425.551C710.427,425.965 710.349,427.04 710.349,428.774L710.349,432.032ZM713.349,436.297C711.833,437.407 710.954,438.336 710.712,439.086C710.47,439.836 710.349,440.915 710.349,442.321C710.349,443.93 710.454,444.969 710.665,445.438C710.876,445.907 711.294,446.141 711.919,446.141C712.513,446.141 712.9,445.957 713.079,445.59C713.259,445.223 713.349,444.258 713.349,442.696L713.349,436.297Z" style="fill:white;fill-rule:nonzero;"/>
            </g>
            <g transform="matrix(0.65448,0.377864,0,0.799939,-188.683,51.7486)">
                <path d="M443.406,207.69C443.599,181.341 468.36,160 498.831,160C529.421,160 554.256,181.508 554.256,208L554.256,320L443.405,320L443.405,208L443.406,207.69Z" style="fill:white;"/>
            </g>
            <g transform="matrix(1,0,0,1,-887.979,-96)">
                <path d="M1163.94,288L1108.51,256L942.236,352L942.236,544L1108.51,640L1274.79,544L1274.79,352L1219.36,320" style="fill:none;stroke:white;stroke-width:5.19px;"/>
            </g>
            <g transform="matrix(0.990979,-0.00520833,-0.00520833,0.996993,-875.646,-88.8793)">
                <path d="M941.395,351.515L1108.51,448L1109.53,640.584L1108.51,448L1274.8,353.158" style="fill:none;stroke:white;stroke-width:5.25px;"/>
            </g>
            <g transform="matrix(1,0,0,1,-500,0)">
                <path d="M609.682,224L609.682,288L665.108,320L720.533,288L720.533,224L665.108,192L609.682,224Z" style="fill:none;stroke:white;stroke-width:5.19px;"/>
            </g>
            <g transform="matrix(0.986468,-0.0078125,-0.0078125,0.995489,-489,6.35085)">
                <path d="M609.682,224L665.108,256L665.609,319.289L665.108,256L720.033,224.866" style="fill:none;stroke:white;stroke-width:5.28px;"/>
            </g>
            <g transform="matrix(1,0,0,1,-444.574,-32)">
                <path d="M665.108,320L720.533,288L720.533,224L665.108,192L609.682,224L665.108,256L719.533,224.577" style="fill:none;stroke:white;stroke-width:5.19px;"/>
            </g>
            <g transform="matrix(1,0,0,1,-389.149,-64)">
                <path d="M665.108,320L720.533,288L720.533,224L665.108,192L609.682,224L665.108,256L719.533,224.577" style="fill:none;stroke:white;stroke-width:5.19px;"/>
            </g>
        </g>
    </g>
</svg>
